<svg id="icons" enable-background="new 0 0 64 64" height="25px" viewBox="0 0 64 64" width="25px" xmlns="http://www.w3.org/2000/svg"><path d="m15.5 54.002c1.103 0 1.998.896 1.998 1.996 0 .009.005.016.005.024v3.975c0 .002.001.004.001.005s0 .001 0 .001c0 2.204 1.793 3.997 3.996 3.997h18.005c2.203 0 3.996-1.793 3.996-3.997 0-.005-.003-.01-.003-.015v-3.972c0-.005.003-.01.003-.015 0-1.103.897-2 2-2h.001c2.756-.001 4.998-2.244 4.998-5v-20.996h2c.553 0 1-.448 1-1v-7.001c0-.552-.447-1-1-1h-2v-4.006c0-2.757-2.243-5-5-5h-.001c-1.102 0-1.997-.896-1.997-1.996 0-.009-.005-.016-.005-.024v-3.975c0-.002-.001-.003-.001-.005 0-2.205-1.793-3.998-3.996-3.998h-18.005c-2.203 0-3.996 1.793-3.996 3.997 0 .005.003.009.003.015v3.972c0 .005-.003.01-.003.015 0 1.103-.897 2-2 2h-.001c-2.756.001-4.998 2.244-4.998 5v34.004c0 2.756 2.243 4.999 5 4.999zm24.005 7.998h-18.005c-1.101 0-1.996-.896-1.996-1.997 0-.002-.001-.004-.001-.005s0-.001 0-.001v-3.999c0-.018-.009-.031-.01-.049-.009-.711-.214-1.371-.55-1.947h23.114c-.34.583-.549 1.25-.554 1.971 0 .011-.006.019-.006.029v3.995c0 .004.002.008.002.012-.002 1.098-.895 1.991-1.994 1.991zm11.995-40.996v5.001h-1v-5.001zm-30.005-19.004h18.005c1.101 0 1.996.896 1.996 1.997 0 .002.001.003.001.005v3.999c0 .017.009.032.01.048.009.712.214 1.372.55 1.948h-23.115c.34-.583.549-1.25.554-1.971 0-.01.006-.019.006-.029v-3.994c0-.004-.002-.008-.002-.012.003-1.098.896-1.991 1.995-1.991zm-8.995 12.998c0-1.654 1.346-3 3-3h30c1.654 0 3 1.346 3 3v34.004c0 1.654-1.346 3-3 3h-30c-1.654 0-3-1.346-3-3z"/><path d="m15.5 51.002h30c1.103 0 2-.897 2-2v-34.004c0-1.103-.897-2-2-2h-30c-1.103 0-2 .897-2 2v34.004c0 1.102.897 2 2 2zm0-36.004h30l-.012 34.004h-29.988z"/><path d="m25.264 25.178 4.529 4.529c.195.195.451.293.707.293s.512-.098.707-.293l4.529-4.529c.01-.01.02-.02.028-.03.776-.79 1.203-1.834 1.203-2.944 0-1.123-.437-2.178-1.23-2.972-.793-.793-1.849-1.23-2.972-1.23-.815 0-1.595.23-2.265.661-1.592-1.023-3.869-.804-5.239.568-1.624 1.625-1.637 4.262-.039 5.904.013.014.027.029.042.043zm1.412-4.533c.416-.416.969-.645 1.556-.645.589 0 1.142.229 1.558.645.11.11.249.195.396.244.359.118.754.026 1.021-.242.832-.833 2.283-.832 3.115 0 .416.416.645.969.645 1.558s-.229 1.142-.645 1.558c-.009.008-.018.018-.025.026l-3.797 3.796-3.824-3.826c-.859-.858-.859-2.256 0-3.114z"/><path d="m41.504 36.001h-7.004c-.054 0-.1.022-.15.03-.067.011-.135.016-.198.04-.064.024-.117.063-.175.099-.052.032-.104.059-.149.101-.055.05-.093.111-.135.173-.027.039-.065.066-.087.11l-1.104 2.209-3.104-6.208c-.018-.036-.05-.059-.071-.091-.037-.057-.075-.11-.124-.159-.05-.05-.104-.088-.162-.126-.032-.021-.055-.053-.09-.07-.021-.011-.045-.009-.066-.018-.064-.027-.13-.041-.199-.054-.062-.011-.12-.023-.182-.023s-.121.012-.184.024c-.067.013-.133.026-.196.053-.022.009-.046.007-.067.018-.036.018-.059.05-.092.071-.058.038-.11.076-.159.125-.05.049-.088.103-.125.16-.021.033-.054.055-.071.091l-1.723 3.446h-6.387c-.553 0-1 .447-1 1s.447 1 1 1h7.004.002c.118-.001.232-.029.342-.069.031-.012.06-.024.089-.038.086-.042.165-.095.236-.16.015-.013.032-.022.046-.037.07-.071.133-.153.18-.248l1.104-2.21 3.104 6.208c.028.058.069.104.106.154.015.02.024.041.041.06.079.089.173.159.275.215.01.005.015.014.024.019.014.007.029.004.043.011.127.056.261.094.4.094.001 0 .002.001.003.001h.001.001c.001 0 .002-.001.003-.001.14 0 .273-.038.399-.094.015-.007.03-.004.044-.011.01-.005.016-.015.024-.02.103-.055.195-.125.274-.214.017-.02.027-.041.043-.062.037-.049.077-.096.105-.152l1.723-3.445h6.386c.553 0 1-.447 1-1s-.445-1.002-.998-1.002z"/><path d="m21 31c1.379 0 2.5-1.122 2.5-2.5s-1.121-2.5-2.5-2.5-2.5 1.122-2.5 2.5 1.121 2.5 2.5 2.5zm0-3c.275 0 .5.224.5.5s-.225.5-.5.5-.5-.224-.5-.5.225-.5.5-.5z"/><path d="m40 31c1.379 0 2.5-1.122 2.5-2.5s-1.121-2.5-2.5-2.5-2.5 1.122-2.5 2.5 1.121 2.5 2.5 2.5zm0-3c.275 0 .5.224.5.5s-.225.5-.5.5-.5-.224-.5-.5.225-.5.5-.5z"/><path d="m36.5 44.002h-12c-.553 0-1 .447-1 1s.447 1 1 1h12c.553 0 1-.447 1-1s-.447-1-1-1z"/></svg>